<svg version="1.1" id="Layer_1" xmlns="http://www.w3.org/2000/svg" xmlns:xlink="http://www.w3.org/1999/xlink" x="0px" y="0px"
	 width="864px" height="864px" viewBox="0 0 864 864" enable-background="new 0 0 864 864" xml:space="preserve">
<g>
	<g>
		<g>
			<path fill="#FFFFFF" d="M777.13,630.453l-0.866-0.261l-0.866-0.432l-0.866-0.435l-1.298-0.432
				c-0.865-0.29-5.915-3.176-15.147-8.657c-9.232-5.482-17.371-11.194-24.411-17.139c-7.099-5.886-13.964-12.295-20.601-19.219
				c-6.637-6.925-12.983-15.002-19.045-24.238c-6.059-9.23-11.253-19.042-15.58-29.429c-4.327-10.389-7.646-21.063-9.954-32.028
				c-2.308-10.963-3.464-25.104-3.464-42.414c0-17.313,1.012-30.873,3.03-40.685c2.021-9.81,4.906-19.476,8.656-28.998
				c3.751-9.521,8.655-19.043,14.716-28.564c6.059-9.521,12.982-18.321,20.773-26.401c7.791-8.079,16.791-15.927,27.007-23.545
				l15.407-11.511l0.173-0.259l0.262-0.173v-0.865v-0.866l-0.262-0.173c-0.113-0.173-0.519-0.749-1.21-1.731
				c-0.751-1.038-4.302-5.309-10.647-12.811c-6.349-7.502-13.417-14.571-21.207-21.207c-7.791-6.635-16.216-12.609-25.276-17.918
				c-9.116-5.367-18.869-10.07-29.257-14.109c-10.388-4.04-22.796-7.502-37.223-10.388c-14.425-2.885-28.132-4.328-41.116-4.328
				c-12.982,0-25.246,1.155-36.788,3.462c-11.542,2.31-32.171,8.513-61.891,18.61c-29.72,10.1-47.175,15.292-52.37,15.581
				c-5.193,0.289-9.665,0-13.417-0.866s-16.158-5.049-37.221-12.552c-21.064-7.5-38.521-12.984-52.369-16.446
				c-13.852-3.463-27.412-5.193-40.684-5.193c-13.273,0-25.535,1.154-36.789,3.462c-11.253,2.309-22.504,5.771-33.76,10.388
				c-11.252,4.618-22.36,10.388-33.324,17.313c-10.965,6.925-20.054,13.706-27.268,20.341c-7.214,6.638-14.051,13.793-20.515,21.469
				c-6.521,7.616-12.955,16.617-19.303,27.007c-6.349,10.387-11.976,21.207-16.88,32.459c-4.905,11.253-9.089,23.517-12.553,36.789
				c-3.462,13.272-6.059,27.411-7.79,42.415l-2.597,22.504h-0.26H82.91v19.479v19.477l3.635,30.299
				c2.48,20.197,6.03,39.816,10.646,58.859c4.616,19.044,10.244,37.798,16.88,56.265c6.638,18.467,13.907,36.01,21.814,52.629
				c7.964,16.563,16.215,31.681,24.755,45.357c8.483,13.734,18.697,28.624,30.644,44.666c12.002,15.986,21.61,27.872,28.824,35.662
				c7.213,7.789,15.003,15.004,23.371,21.638c8.367,6.637,16.158,11.687,23.373,15.149c7.213,3.464,12.261,5.626,15.147,6.492
				c2.886,0.865,4.903,1.444,6.059,1.732l1.731,0.434l3.029,0.433l3.029,0.434v0.259v0.174h8.655h8.656v-0.174v-0.259l3.462-0.434
				l3.464-0.433l16.014-4.33c10.675-2.884,24.524-7.357,41.55-13.419c17.023-6.06,30.007-9.954,38.952-11.683
				c8.944-1.73,19.043-2.598,30.297-2.598c11.253,0,22.218,1.154,32.895,3.463c10.675,2.309,25.39,6.779,44.146,13.417
				c18.754,6.637,32.75,10.818,41.981,12.552c9.232,1.73,16.156,2.684,20.774,2.856l6.925,0.173l0.865-0.173l0.866-0.26l3.462-0.434
				c2.308-0.288,7.358-1.589,15.148-3.896c7.789-2.307,15.58-5.77,23.37-10.388c7.791-4.616,15.379-10.302,22.767-17.053
				c7.328-6.811,15.407-15.467,24.236-25.969c8.771-10.56,18.64-23.775,29.604-39.646c10.965-15.867,20.544-31.391,28.737-46.565
				c8.253-15.12,16.217-32.201,23.892-51.243l11.428-28.566v-0.865v-0.866L777.13,630.453z"/>
			<path fill="#FFFFFF" d="M473.301,196.958c10.388-2.597,19.85-6.117,28.392-10.562c8.483-4.5,16.967-10.156,25.448-16.965
				c8.541-6.751,16.332-14.08,23.374-21.986c7.098-7.963,13.82-16.995,20.168-27.093c6.348-10.099,11.541-19.909,15.581-29.432
				c4.04-9.521,7.212-19.044,9.521-28.564c2.309-9.522,3.751-19.91,4.328-31.163c0.575-11.253,0.777-18.465,0.604-21.64
				l-0.173-4.762h-3.029h-3.029v0.173c0,0.175-3.318,0.839-9.954,1.991c-6.637,1.155-15.293,3.607-25.969,7.359
				c-10.677,3.751-20.773,8.223-30.297,13.416c-9.521,5.193-18.467,10.966-26.834,17.313c-8.367,6.349-15.868,13.273-22.505,20.774
				c-6.637,7.502-12.839,15.438-18.61,23.804c-5.771,8.368-10.907,17.254-15.408,26.661c-4.443,9.349-7.963,19.216-10.56,29.605
				c-2.597,10.386-4.096,22.216-4.501,35.487l-0.691,19.91l14.284-0.173C452.959,200.94,462.912,199.554,473.301,196.958z"/>
		</g>
	</g>
</g>
</svg>
